<?xml version="1.0" standalone="no"?><!DOCTYPE svg PUBLIC "-//W3C//DTD SVG 1.1//EN" "http://www.w3.org/Graphics/SVG/1.1/DTD/svg11.dtd"><svg t="1613553408579" class="icon" viewBox="0 0 1024 1024" version="1.1" xmlns="http://www.w3.org/2000/svg" p-id="8849" xmlns:xlink="http://www.w3.org/1999/xlink" width="200" height="200"><defs><style type="text/css"></style></defs><path d="M364.288 260.138667l7.210667-7.850667a21.333333 21.333333 0 0 1 30.122666-1.322667l249.856 229.504a42.837333 42.837333 0 0 1 0 63.061334l-249.856 229.546666a21.333333 21.333333 0 0 1-30.122666-1.365333l-7.253334-7.850667a21.418667 21.418667 0 0 1 1.365334-30.250666l232.661333-213.76a10.666667 10.666667 0 0 0 0-15.744l-232.661333-213.76a21.418667 21.418667 0 0 1-1.322667-30.208z" fill="#ffffff" p-id="8850"></path><path d="M170.666667 0h682.666666v1024H170.666667z" fill="#ffffff" fill-opacity="0" p-id="8851"></path></svg>