<?xml version="1.0" standalone="no"?><!DOCTYPE svg PUBLIC "-//W3C//DTD SVG 1.1//EN" "http://www.w3.org/Graphics/SVG/1.1/DTD/svg11.dtd"><svg t="1613563515229" class="icon" viewBox="0 0 1143 1024" version="1.1" xmlns="http://www.w3.org/2000/svg" p-id="21555" xmlns:xlink="http://www.w3.org/1999/xlink" width="223.2421875" height="200"><defs><style type="text/css"></style></defs><path d="M4.96124 0h1024v1024H4.96124z" fill="#000000" fill-opacity="0" p-id="21556"></path><path d="M258.358574 849.408l2.410666 2.432c149.333333 149.333333 392.917333 147.861333 544.085334-3.285333a388.202667 388.202667 0 0 0 114.325333-273.578667l-3.008 0.341333c-59.648 5.333333-626.133333-5.034667-766.208-5.632-141.461333-0.597333 29.824 200.554667 108.373333 279.722667z" fill="#FF9600" fill-opacity=".136" p-id="21557"></path><path d="M97.718574 569.493333l118.826666 55.402667a27.434667 27.434667 0 1 1-23.189333 49.706667l-62.549333-29.141334c56.533333 153.002667 206.784 259.690667 379.541333 259.690667 192.618667 0 357.290667-132.608 395.242667-314.282667 3.093333-14.848 17.941333-24.426667 33.173333-21.397333 15.232 3.008 25.066667 17.493333 21.973333 32.341333C917.47324 808.917333 729.846574 960 510.347907 960 291.574574 960 104.502574 809.898667 60.427907 603.946667a27.434667 27.434667 0 0 1 37.290667-34.453334zM461.15324 320c15.146667 0 24.597333 7.338667 28.373334 20.202667 1.898667 14.72-7.573333 25.728-24.576 29.397333-3.797333 1.834667-9.472 1.834667-13.248 3.690667h-5.674667v40.405333h26.474667c7.573333 1.834667 17.024 5.525333 20.821333 14.72v-58.816c0-12.842667 1.877333-23.893333 7.552-29.397333 5.674667-7.338667 15.146667-9.173333 26.496-9.173334h138.090667c15.125333-1.834667 26.474667 1.834667 34.048 9.173334 7.552 5.525333 9.450667 14.72 9.450666 27.562666v137.813334c0 12.842667-1.898667 22.037333-7.573333 27.541333-5.674667 5.525333-13.226667 7.36-22.698667 7.36h-157.013333c-9.450667 0-17.002667-1.834667-20.8-7.36-5.674667-5.504-7.552-14.698667-7.552-27.541333v-55.125334c-3.797333 11.029333-13.248 12.864-20.821333 12.864h-26.474667v5.504c3.776 3.669333 5.674667 7.36 9.450667 11.029334 22.698667 25.728 34.048 42.24 37.845333 45.930666 9.450667 16.533333 7.552 29.397333-3.797333 40.426667-3.776 3.669333-9.450667 5.504-15.146667 5.504-7.552 0-28.373333-7.36-30.250667-11.029333v121.28c0 9.173333-5.674667 20.202667-26.474666 22.037333-22.698667-1.834667-26.496-14.698667-26.496-23.893333v-86.336c-3.776 12.842667-9.450667 22.037333-15.125334 31.232-7.573333 7.338667-15.146667 12.864-24.597333 12.864-3.776 0-9.450667-1.856-13.226667-3.690667-9.472-3.669333-18.922667-14.698667-7.573333-34.901333 22.698667-38.592 43.52-82.688 56.746667-132.288h-37.824c-11.349333 0-24.597333-3.669333-24.597334-25.728 1.898667-14.698667 9.450667-23.893333 26.474667-25.728h39.722667v-33.066667c-3.776 0-9.450667 1.834667-15.125334 1.834667h-24.597333c-18.901333 0-24.576-11.008-26.474667-20.202667 0-16.533333 9.450667-27.562667 28.373334-31.232h13.226666c39.744-3.669333 69.994667-9.173333 88.917334-12.864z m106.24 234.666667c6.378667 0 10.624 1.792 17.002667 3.605333 19.114667 8.981333 23.36 21.589333 10.624 37.76-21.248 34.197333-50.986667 66.581333-84.970667 98.986667-8.490667 5.376-16.981333 8.981333-25.472 8.981333-8.490667 0-14.869333-1.792-23.381333-7.189333-8.490667-7.210667-14.848-21.589333 4.266667-37.781334 25.472-21.610667 48.853333-50.389333 74.325333-88.170666A31.893333 31.893333 0 0 1 567.39324 554.666667z m113.408 10.154666c26.218667 30.08 48.384 63.957333 68.522667 101.546667 6.058667 15.061333 0 28.224-16.106667 35.754667-4.053333 1.877333-8.064 1.877333-12.096 1.877333-10.090667 0-18.133333-5.632-24.192-15.04-26.197333-39.509333-48.362667-71.466667-66.496-94.037333-6.058667-5.653333-8.064-13.184-6.058666-18.816 2.026667-5.632 6.058667-11.285333 14.122666-16.917334 14.101333-7.530667 28.202667-5.653333 42.304 5.632z m-27.434666-185.301333h-107.370667c-1.877333 0.085333-3.562667 0.704-3.562667 6.250667v109.013333c0.042667 1.728 0.298667 2.986667 2.133334 1.216h110.933333c2.133333 0 4.266667 0 4.266667-4.16v-108.224c-0.085333-0.384-0.704-2.24-6.4-4.096zM510.347907 64c226.026667 0 417.493333 160.042667 453.589333 375.168 0.298667 1.877333 0.426667 3.733333 0.341334 5.546667v0.469333a27.434667 27.434667 0 0 1-41.130667 23.018667l-113.536-65.536a27.434667 27.434667 0 1 1 27.434667-47.509334l56.042666 32.341334C839.307907 230.058667 686.774574 118.848 510.347907 118.848c-196.736 0-363.861333 138.24-397.333333 325.013333-2.666667 14.933333-17.237333 24.917333-32.554667 22.293334-15.317333-2.602667-25.557333-16.810667-22.890667-31.722667C95.755907 221.525333 286.155907 64 510.347907 64z" fill="#FF9600" p-id="21558"></path></svg>