<?xml version="1.0" standalone="no"?><!DOCTYPE svg PUBLIC "-//W3C//DTD SVG 1.1//EN" "http://www.w3.org/Graphics/SVG/1.1/DTD/svg11.dtd"><svg t="1613560083260" class="icon" viewBox="0 0 1024 1024" version="1.1" xmlns="http://www.w3.org/2000/svg" p-id="16855" xmlns:xlink="http://www.w3.org/1999/xlink" width="200" height="200"><defs><style type="text/css"></style></defs><path d="M960 408.96a32 32 0 0 0-36.906667-3.626667l-228.266666 128-155.093334-271.786666a7.466667 7.466667 0 0 0-1.066666-1.706667l-1.92-2.773333-2.133334-2.346667-2.346666-2.133333-2.773334-1.92-1.706666-1.066667-2.986667-1.493333h-23.68l-3.413333 1.493333-1.706667 1.066667-2.773333 2.133333-2.346667 1.92-1.92 2.346667a24.106667 24.106667 0 0 0-2.133333 2.773333 7.466667 7.466667 0 0 0-1.066667 1.706667L329.173333 533.333333l-228.266666-128a32 32 0 0 0-45.866667 38.4l152.746667 441.386667a32.213333 32.213333 0 0 0 30.08 21.333333h548.266666a32 32 0 0 0 30.08-21.333333l152.746667-441.173333a32 32 0 0 0-8.96-34.986667zM763.306667 842.666667H260.693333l-117.76-341.333334 182.826667 101.76a31.786667 31.786667 0 0 0 42.666667-12.16L512 341.333333l142.933333 250.026667a31.786667 31.786667 0 0 0 42.666667 12.16l182.826667-101.76z" fill="#F8B500" p-id="16856"></path><path d="M512 309.333333A117.333333 117.333333 0 1 1 629.333333 192a117.546667 117.546667 0 0 1-117.333333 117.333333z m0-170.666666A53.333333 53.333333 0 1 0 565.333333 192 53.333333 53.333333 0 0 0 512 138.666667zM814.72 762.24H209.28a32 32 0 0 1 0-64h605.44a32 32 0 0 1 0 64z" fill="#6336FF" p-id="16857"></path><path d="M560.853333 298.666667l-21.333333-36.906667a7.466667 7.466667 0 0 0-1.066667-1.706667l-1.92-2.773333-2.133333-2.346667-2.346667-2.133333-2.773333-1.92-1.706667-1.066667-2.986666-1.493333h-23.68l-3.413334 1.493333-1.706666 1.066667-2.773334 2.133333-2.346666 1.92-1.92 2.346667a24.106667 24.106667 0 0 0-2.133334 2.773333 7.466667 7.466667 0 0 0-1.066666 1.706667l-21.333334 36.906667a115.2 115.2 0 0 0 97.706667 0zM232.96 762.24l-21.333333-64h-2.346667a32 32 0 0 0 0 64zM846.72 730.24a32 32 0 0 0-32-32h-1.493333l-21.333334 64h23.68a32 32 0 0 0 31.146667-32z" fill="#5D2500" p-id="16858"></path></svg>