<?xml version="1.0" standalone="no"?><!DOCTYPE svg PUBLIC "-//W3C//DTD SVG 1.1//EN" "http://www.w3.org/Graphics/SVG/1.1/DTD/svg11.dtd"><svg t="1613564284080" class="icon" viewBox="0 0 1024 1024" version="1.1" xmlns="http://www.w3.org/2000/svg" p-id="25609" xmlns:xlink="http://www.w3.org/1999/xlink" width="200" height="200"><defs><style type="text/css"></style></defs><path d="M283.27443299 927.91468078a110.10198743 110.10198743 0 0 1-109.95116277-109.95116278L173.32327022 246.03648199A110.10198743 110.10198743 0 0 1 283.27443299 136.08531921l457.52654634 0a110.10198743 110.10198743 0 0 1 109.95116278 109.95116278l0 571.8516237a110.10198743 110.10198743 0 0 1-109.95116278 109.95116277z m0-743.41465203a61.68727789 61.68727789 0 0 0-61.61186557 61.61186555l0 571.8516237a61.68727789 61.68727789 0 0 0 61.61186557 61.61186556l457.52654634 0a61.68727789 61.68727789 0 0 0 61.61186557-61.61186556L802.4128449 246.03648199a61.68727789 61.68727789 0 0 0-61.61186557-61.61186556z" fill="#FF6666" p-id="25610"></path><path d="M331.01043164 556.20735476a24.20735476 24.20735476 0 1 1 0-48.3392972l361.97913672 0a24.20735476 24.20735476 0 1 1 0 48.3392972zM331.01043164 670.5324321a24.20735476 24.20735476 0 1 1 0-48.03764792l246.97534849 0a24.20735476 24.20735476 0 1 1 0 48.41470953zM331.01043164 441.50521582a24.20735476 24.20735476 0 1 1 0-48.41470954l361.97913672 0a24.20735476 24.20735476 0 1 1 0 48.41470954z" fill="#FF6666" p-id="25611"></path></svg>