<?xml version="1.0" standalone="no"?><!DOCTYPE svg PUBLIC "-//W3C//DTD SVG 1.1//EN" "http://www.w3.org/Graphics/SVG/1.1/DTD/svg11.dtd"><svg t="1613553566528" class="icon" viewBox="0 0 1024 1024" version="1.1" xmlns="http://www.w3.org/2000/svg" p-id="9768" xmlns:xlink="http://www.w3.org/1999/xlink" width="200" height="200"><defs><style type="text/css"></style></defs><path d="M814.364444 85.333333v853.333334h-568.888888V85.333333h568.888888m0-56.888889h-568.888888a56.888889 56.888889 0 0 0-56.888889 56.888889v853.333334a56.888889 56.888889 0 0 0 56.888889 56.888889h568.888888a56.888889 56.888889 0 0 0 56.888889-56.888889V85.333333a56.888889 56.888889 0 0 0-56.888889-56.888889z" fill="#ffffff" p-id="9769"></path><path d="M213.617778 203.662222h628.906666v56.888889H213.617778zM213.617778 763.448889h628.906666v56.888889H213.617778zM529.92 855.608889a25.315556 25.315556 0 1 0 25.315556 25.315555 25.315556 25.315556 0 0 0-25.315556-25.315555z" fill="#ffffff" p-id="9770"></path></svg>