<?xml version="1.0" standalone="no"?><!DOCTYPE svg PUBLIC "-//W3C//DTD SVG 1.1//EN" "http://www.w3.org/Graphics/SVG/1.1/DTD/svg11.dtd"><svg t="1613560109867" class="icon" viewBox="0 0 1024 1024" version="1.1" xmlns="http://www.w3.org/2000/svg" p-id="17781" xmlns:xlink="http://www.w3.org/1999/xlink" width="200" height="200"><defs><style type="text/css"></style></defs><path d="M765.5 606.693a21.915 21.915 0 0 1-18.195-9.678c-6.823-10.042-4.163-23.71 5.88-30.491 53.086-35.876 110.379-116.773 110.379-184.857 0-109.005-88.664-197.69-197.67-197.69-52.013 0-101.194 20.191-138.487 56.82a21.966 21.966 0 0 1-30.813 0c-37.252-36.65-86.432-56.82-138.446-56.82-109.005 0-197.71 88.684-197.71 197.69 0 75.36 41.884 143.122 109.304 176.875 10.858 5.43 15.236 18.647 9.829 29.484-5.45 10.9-18.668 15.213-29.484 9.827-82.397-41.264-133.595-124.09-133.595-216.186 0-133.232 108.404-241.637 241.655-241.637 56.693 0 110.594 19.57 153.853 55.511 43.302-35.94 97.203-55.51 153.894-55.51 133.21 0 241.614 108.404 241.614 241.634 0 83.621-65.962 178.163-129.69 221.25a21.923 21.923 0 0 1-12.317 3.778z" fill="#E75428" p-id="17782"></path><path d="M730.267 681.623c-18.11 0-35.104-7.06-47.894-19.85l-83.813-83.79c-8.583-8.582-8.583-22.487 0-31.07 8.584-8.583 22.488-8.583 31.07 0l83.814 83.793c9.011 9.012 24.634 8.99 33.646-0.022 9.27-9.249 9.27-24.355 0-33.624L506.507 363.212c-8.711-8.454-8.883-22.359-0.429-31.07 8.497-8.691 22.401-8.884 31.07-0.43l240.799 234.061c26.606 26.629 26.606 69.588 0.214 96.002-12.832 12.81-29.826 19.848-47.893 19.848z" fill="#E75428" p-id="17783"></path><path d="M673.662 755.052c-17.337 0-34.676-6.589-47.893-19.807l-42.83-42.85c-8.583-8.583-8.583-22.488 0-31.071 8.584-8.583 22.488-8.583 31.072 0l42.83 42.85c9.27 9.27 24.375 9.27 33.644 0 4.507-4.506 6.996-10.47 6.996-16.822 0-6.373-2.49-12.338-6.996-16.822l-113.64-113.684c-8.583-8.583-8.583-22.487 0-31.07s22.488-8.582 31.071 0l113.64 113.662c12.789 12.788 19.87 29.804 19.87 47.914 0 18.09-7.082 35.104-19.87 47.915-13.218 13.196-30.557 19.784-47.894 19.784z" fill="#E75428" p-id="17784"></path><path d="M608.86 819.896c-18.111 0-35.105-7.06-47.894-19.848l-10.472-10.514c-8.582-8.583-8.582-22.487 0-31.07 8.584-8.54 22.488-8.585 31.073 0.042l10.47 10.493c9.012 8.968 24.633 8.99 33.646-0.022 9.27-9.27 9.27-24.397 0-33.668l-22.574-22.571c-8.582-8.585-8.582-22.49 0-31.072s22.49-8.583 31.072 0l22.573 22.574c26.394 26.414 26.394 69.394 0 95.808-12.79 12.788-29.784 19.848-47.894 19.848z" fill="#E75428" p-id="17785"></path><path d="M544.788 883.97c-18.111 0-35.105-7.062-47.894-19.85l-10.472-10.513c-8.582-8.584-8.582-22.488 0-31.072 8.584-8.54 22.488-8.584 31.072 0.043l10.47 10.494c9.013 8.968 24.634 8.99 33.647-0.023 9.27-9.27 9.27-24.397 0-33.667l-9.096-9.096c-8.584-8.583-8.584-22.486 0-31.07s22.489-8.583 31.072 0l9.095 9.097c26.394 26.413 26.394 69.393 0 95.808-12.79 12.788-29.784 19.848-47.894 19.848z m-246.85-227.175c-18.067 0-35.062-7.038-47.894-19.826-26.392-26.436-26.392-69.395 0-95.809l72.184-72.183c25.706-25.642 70.253-25.556 95.787 0 12.789 12.789 19.87 29.804 19.87 47.894s-7.082 35.104-19.87 47.914l-72.183 72.163c-12.788 12.788-29.782 19.847-47.893 19.847z m72.183-163.722c-6.35 0-12.315 2.489-16.822 6.996l-72.182 72.161c-9.27 9.27-9.27 24.377 0 33.646 9.01 8.97 24.632 9.012 33.645 0l72.183-72.183c4.506-4.507 6.996-10.472 6.996-16.822s-2.49-12.318-6.996-16.801c-4.507-4.528-10.472-6.996-16.824-6.996z" fill="#E75428" p-id="17786"></path><path d="M362.655 721.514c-18.069 0-35.062-7.04-47.894-19.828-26.393-26.414-26.393-69.373 0-95.808l72.184-72.184c25.706-25.642 70.209-25.576 95.83-0.021 26.392 26.436 26.392 69.394 0 95.808l-72.228 72.184c-12.788 12.788-29.782 19.849-47.893 19.849z m72.183-163.723c-6.352 0-12.317 2.49-16.823 6.995l-72.183 72.162c-9.27 9.27-9.27 24.376 0 33.646 9.013 8.97 24.634 9.011 33.647 0l72.226-72.183c9.27-9.27 9.27-24.376 0-33.646-4.506-4.485-10.471-6.974-16.866-6.974z" fill="#E75428" p-id="17787"></path><path d="M427.37 786.25c-18.067 0-35.061-7.038-47.893-19.826-26.393-26.436-26.393-69.415 0-95.83l72.226-72.183c25.535-25.535 70.082-25.642 95.787-0.022 26.395 26.435 26.395 69.395 0 95.81l-72.226 72.204c-12.789 12.788-29.783 19.848-47.894 19.848z m72.227-163.743c-6.351 0-12.316 2.468-16.822 6.974l-72.227 72.184c-9.27 9.27-9.27 24.397 0 33.667 9.012 8.969 24.634 9.01 33.646 0l72.227-72.205c9.27-9.27 9.27-24.376 0-33.646-4.508-4.484-10.473-6.974-16.823-6.974z" fill="#E75428" p-id="17788"></path><path d="M492.087 850.967c-18.068 0-35.062-7.039-47.894-19.827-26.392-26.435-26.392-69.395 0-95.808l72.227-72.205c25.535-25.557 70.124-25.62 95.787-0.022 26.393 26.458 26.393 69.415 0 95.81l-72.183 72.204c-12.832 12.81-29.828 19.848-47.937 19.848z m72.226-163.744c-6.35 0-12.316 2.468-16.822 6.974l-72.226 72.205c-9.27 9.27-9.27 24.375 0 33.646 9.012 8.968 24.676 8.948 33.688-0.022l72.183-72.183c9.27-9.27 9.27-24.376 0-33.646-4.505-4.485-10.471-6.974-16.823-6.974zM409.52 451.704c-18.068 0-35.063-7.038-47.894-19.826-26.393-26.437-26.393-69.395 0-95.81L496.98 209.104c8.797-8.262 22.744-7.875 31.027 0.988 8.325 8.861 7.897 22.766-0.987 31.072l-134.84 126.47c-8.755 8.774-8.755 23.88 0.515 33.15 9.013 8.97 24.634 9.013 33.646 0l81.153-69.972c9.227-7.854 23.087-6.868 30.984 2.317 7.897 9.184 6.867 23.066-2.317 30.985l-79.951 68.859c-11.588 11.67-28.582 18.73-46.691 18.73z" fill="#E75428" p-id="17789"></path></svg>