<?xml version="1.0" standalone="no"?><!DOCTYPE svg PUBLIC "-//W3C//DTD SVG 1.1//EN" "http://www.w3.org/Graphics/SVG/1.1/DTD/svg11.dtd"><svg t="1613560137377" class="icon" viewBox="0 0 1024 1024" version="1.1" xmlns="http://www.w3.org/2000/svg" p-id="18700" xmlns:xlink="http://www.w3.org/1999/xlink" width="200" height="200"><defs><style type="text/css"></style></defs><path d="M537.6 701.44c-92.16 0-163.84-71.68-163.84-163.84s71.68-163.84 163.84-163.84 163.84 71.68 163.84 163.84-71.68 163.84-163.84 163.84z m0-271.36c-61.44 0-107.52 51.2-107.52 107.52s51.2 107.52 107.52 107.52 107.52-51.2 107.52-107.52-51.2-107.52-107.52-107.52z" fill="#1890FF" p-id="18701"></path><path d="M645.12 972.8H424.96c-15.36 0-25.6-10.24-25.6-25.6v-102.4c-20.48-15.36-40.96-25.6-56.32-35.84L256 865.28c-10.24 5.12-30.72 5.12-40.96-10.24L107.52 665.6c-10.24-15.36-5.12-30.72 10.24-35.84L204.8 568.32V506.88L117.76 450.56c-15.36-5.12-20.48-20.48-10.24-35.84l107.52-189.44c5.12-15.36 20.48-20.48 40.96-10.24l87.04 56.32c15.36-10.24 35.84-25.6 56.32-30.72V128c0-15.36 10.24-25.6 25.6-25.6h215.04c15.36 0 25.6 10.24 25.6 25.6v102.4c25.6 15.36 51.2 25.6 66.56 35.84L819.2 209.92c10.24-5.12 25.6-5.12 35.84 10.24L962.56 409.6c10.24 15.36 5.12 30.72-10.24 35.84l-87.04 56.32v66.56l87.04 56.32c10.24 5.12 15.36 20.48 10.24 35.84l-107.52 189.44c-5.12 10.24-20.48 15.36-35.84 10.24l-87.04-56.32c-15.36 10.24-35.84 25.6-61.44 30.72v102.4c0 25.6-10.24 35.84-25.6 35.84z m-189.44-56.32H614.4v-92.16c0-10.24 5.12-20.48 15.36-25.6 25.6-10.24 56.32-25.6 76.8-46.08 10.24-5.12 20.48-5.12 30.72 0l81.92 51.2 81.92-143.36-81.92-51.2c-10.24-10.24-15.36-20.48-10.24-30.72 5.12-15.36 10.24-25.6 10.24-40.96s0-25.6-5.12-40.96c0-10.24 5.12-20.48 10.24-25.6l81.92-51.2-81.92-143.36-81.92 51.2c-10.24 5.12-20.48 5.12-30.72 0-20.48-15.36-51.2-30.72-76.8-40.96-10.24-15.36-20.48-25.6-20.48-35.84V158.72H455.68v92.16c0 10.24-5.12 20.48-15.36 25.6-30.72 10.24-56.32 25.6-76.8 40.96-10.24 5.12-20.48 5.12-30.72 0l-81.92-40.96-81.92 143.36 81.92 51.2c10.24 5.12 15.36 15.36 10.24 25.6 0 15.36-5.12 25.6-5.12 40.96s0 25.6 5.12 46.08c5.12 10.24 0 20.48-10.24 25.6l-81.92 51.2 81.92 143.36 81.92-51.2c10.24-5.12 20.48-5.12 30.72 0 20.48 15.36 51.2 30.72 76.8 40.96 10.24 5.12 15.36 15.36 15.36 25.6v97.28z" fill="#1890FF" p-id="18702"></path></svg>